<svg width="1285" height="1281" viewBox="0 0 1285 1281" fill="none" xmlns="http://www.w3.org/2000/svg">
<circle cx="640.5" cy="640.5" r="640.5" fill="#0A6ACA"/>
<path d="M750.477 968H508.538V313.455H750.158C816.848 313.455 874.27 326.558 922.423 352.766C970.79 378.76 1008.08 416.26 1034.28 465.266C1060.49 514.058 1073.6 572.439 1073.6 640.408C1073.6 708.589 1060.49 767.183 1034.28 816.189C1008.29 865.195 971.109 902.801 922.743 929.009C874.376 955.003 816.955 968 750.477 968ZM666.741 833.128H744.405C781.053 833.128 812.054 826.949 837.409 814.591C862.977 802.02 882.26 781.672 895.257 753.547C908.467 725.209 915.072 687.496 915.072 640.408C915.072 593.32 908.467 555.82 895.257 527.908C882.047 499.783 862.551 479.541 836.77 467.183C811.202 454.612 779.668 448.327 742.168 448.327H666.741V833.128Z" fill="url(#paint0_linear_1236_20)"/>
<path d="M216.538 968V313.455H374.741V839.52H647.043V968H216.538Z" fill="url(#paint1_linear_1236_20)"/>
<rect x="413.491" y="338.134" width="104" height="691.724" transform="rotate(-15 413.491 338.134)" fill="#0A6ACA"/>
<rect x="449" y="477" width="104" height="363" fill="#0A6ACA"/>
<defs>
<linearGradient id="paint0_linear_1236_20" x1="459" y1="96" x2="1244.95" y2="197.871" gradientUnits="userSpaceOnUse">
<stop offset="1" stop-color="white"/>
</linearGradient>
<linearGradient id="paint1_linear_1236_20" x1="167" y1="96" x2="783.748" y2="158.324" gradientUnits="userSpaceOnUse">
<stop offset="1" stop-color="white"/>
</linearGradient>
</defs>
</svg>
